<?xml version="1.0" ?><!DOCTYPE svg  PUBLIC '-//W3C//DTD SVG 1.1//EN'  'http://www.w3.org/Graphics/SVG/1.1/DTD/svg11.dtd'><svg enable-background="new 0 0 512 512" fill="#FFFFFF" height="70" id="Layer_1" version="1.1" viewBox="0 0 512 512" width="70" xml:space="preserve" xmlns="http://www.w3.org/2000/svg" xmlns:xlink="http://www.w3.org/1999/xlink"><path d="M492.368,442.611c0,34.171-27.702,61.872-61.873,61.872H80.752c-34.171,0-61.874-27.701-61.874-61.872  V92.866c0-34.171,27.703-61.873,61.874-61.873h349.743c34.171,0,61.873,27.701,61.873,61.873V442.611z"/><path d="M492.368,417.867c0,34.172-27.702,61.873-61.873,61.873H80.752c-34.171,0-61.874-27.701-61.874-61.873  V68.122c0-34.171,27.703-61.872,61.874-61.872h349.743c34.171,0,61.873,27.701,61.873,61.872V417.867z"/><path d="M492.368,417.867V276.178c-1.683-1.693-3.376-3.375-5.108-5.01c-4.037-4.282-8.333-8.351-12.497-12.511  c-4.161-4.158-8.225-8.452-12.503-12.489c-4.037-4.283-8.333-8.351-12.497-12.511c-4.161-4.158-8.225-8.452-12.503-12.489  c-4.037-4.283-8.333-8.351-12.497-12.511c-4.161-4.158-8.225-8.452-12.503-12.489c-4.037-4.283-8.333-8.351-12.497-12.511  c-4.15-4.148-8.21-8.42-12.468-12.457c-3.723-3.53-8.453-5.491-13.49-6.211c-5.018-0.717-10.087-0.34-15.131-0.282  c-2.813,0.032-5.665-0.018-8.422-0.627c-1.295-0.286-2.572-0.703-3.766-1.284c-1.318-0.643-2.229-1.654-3.248-2.689  c-3.124-3.174-6.195-6.526-9.666-9.333c-3.633-2.936-7.724-5.26-11.958-7.209c-1.358-0.625-2.733-1.212-4.121-1.767  c-0.721-0.289-1.364-0.471-1.915-1.025c-0.582-0.585-1.165-1.17-1.752-1.749c-2.066-2.1-4.174-4.16-6.248-6.251  c-8.302-8.365-16.699-16.635-25-25c-4.143-4.173-8.383-8.274-13.365-11.447c-4.218-2.687-9.203-4.898-14.317-4.338  c-10.604,1.16-16.649,14.004-14.529,23.575c1.365,6.163,5.259,11.41,9.617,15.824c-5.861,0.841-11.673,2.013-17.414,3.46  c-3.112,0.784-6.206,1.644-9.274,2.586c-1.465,0.45-2.923,0.922-4.375,1.412c-1.062-0.981-1.989-2.115-3.073-3.072  c-1.058-0.934-1.941-2.065-3-3c-1.139-1.006-2.064-2.285-3.266-3.221c-0.821-1.042-1.953-2.185-3-3  c-0.947-1.202-2.221-2.138-3.234-3.28c-0.938-1.056-2.063-1.945-3-3c-0.854-0.961-1.849-2.022-3.094-2.454  c-1.49-0.516-3.223-0.293-4.704,0.139c-3.535,1.03-6.617,3.427-9.311,5.853c-3.227,2.904-6.109,6.186-8.811,9.578  c-2.371,2.977-4.605,6.065-6.721,9.229c-1.211,1.811-2.215,3.6-2.548,5.791c-0.387,2.55,0,5.164,0.717,7.62  c0.743,2.541,1.849,4.97,3.124,7.285c0.146,0.266,0.295,0.53,0.446,0.793c0.246,0.429-0.123,0.456-0.467,0.708  c-0.614,0.45-1.225,0.904-1.833,1.362c-1.309,0.986-2.603,1.993-3.881,3.019c-2.427,1.947-4.798,3.962-7.113,6.041  c-1.097,0.984-2.181,1.983-3.251,2.996c-0.36,0.34-0.396,0.523-0.907,0.446c-0.376-0.057-0.753-0.109-1.131-0.154  c-0.887-0.104-1.778-0.171-2.671-0.187c-9.978-0.167-18.642,5.182-24.067,13.37c-5.443,8.214-7.917,18.275-8.457,28.024  c-0.474,8.548,0.37,17.733,4.377,25.435c1.275,2.452,2.768,4.791,4.36,7.047c0.438,0.62,0.884,1.234,1.338,1.842  c0.437,0.583,0.305,1.555,0.351,2.276c0.107,1.699,0.23,3.397,0.366,5.095c0.436,5.464,0.999,10.917,1.554,16.37  c0.665,6.533,1.851,12.848,3.754,19.146c5.527,18.286,14.514,35.746,25.402,51.399c6.008,8.637,12.801,16.526,20.249,23.943  c8.351,8.316,16.649,16.685,25,25c16.701,16.633,33.299,33.368,50,50c10.841,10.797,21.646,21.63,32.456,32.457h145.62  C464.666,479.74,492.368,452.039,492.368,417.867z"/><g><path d="M275.332,183.133c4.839-1.987,6.553-8.993,3.815-15.648c-2.729-6.655-8.866-10.438-13.713-8.451   c-4.838,1.989-6.54,8.994-3.811,15.648C264.354,181.337,270.494,185.12,275.332,183.133z"/><path d="M199.984,202.627c4.185-1.149,6.403-6.328,4.961-11.565c-1.435-5.238-5.984-8.552-10.165-7.409   c-4.185,1.151-6.408,6.328-4.97,11.565C191.245,200.458,195.8,203.775,199.984,202.627z"/><path d="M389.644,173.757c-7.724-9.629-18.094-9.376-27.691-9.123c-1.468,0.043-2.923,0.08-4.357,0.08   c-2.434,0-5.582-0.103-8.356-0.888c-4.447-1.26-6.272-3.338-9.035-6.486c-3.687-4.201-8.73-9.949-22.71-15.542   c-6.618-2.646-13.371-5.313-20.691-7.452c-0.519-4.795-1.369-9.004-1.706-10.551l-0.346-0.82   c-0.854-1.269-21.086-31.075-38.227-31.075c-5.524,0-10.083,2.921-13.54,8.678c-4.205,7.012-4.135,14.454,0.205,22.124   c1.715,3.029,4.078,5.934,6.795,8.686c-7.904,1.134-16.232,2.938-25.226,5.604c-7.646,2.267-15.221,5.146-22.62,8.49   c1.098-11.737,1.139-26.889-5.742-27.869c-10.136-1.442-24.174,18.067-29.554,26.313c-3.983,6.109-0.744,14.43,2.754,20.438   c-6.183,4.482-11.925,9.316-17.227,14.372c-1.501-0.244-3.018-0.402-4.563-0.402c-0.25,0-0.501,0.002-0.756,0.013   c-9.787,0.271-17.95,5.259-23.61,14.43c-9.503,15.383-9.804,38.744-4.127,50.909c1.406,3.016,3.691,6.739,6.663,10.679   c0.424,7.604,1.192,15.16,1.94,22.477l0.419,4.116c2.897,28.911,34.199,92.549,76.664,109.779   c5.483,2.227,11.226,3.354,17.063,3.354c26.562,0,51.837-23.191,72.142-41.826c7.301-6.697,14.198-13.023,20.261-17.471   c26.887-19.716,49.567-51.311,66.248-74.545c14.843-20.674,13.626-33.373,12.652-43.577c-0.148-1.543-0.292-3.037-0.37-4.509   c-0.169-3.153,0.51-6.557,1.221-10.165C395.892,193.524,397.795,183.916,389.644,173.757z M246.358,159.814   c3.51-5.134,8.015-8.122,13.777-9.14c13.746-2.417,23.792,11.754,30.857,29.196c-21.777,8.365-41.101,28.465-50.652,39.701   c-0.214-0.175-0.407-0.364-0.625-0.537C237.796,203.206,236.151,174.737,246.358,159.814z M246.197,240.317   c0,14.056-14.999,30.396-34.338,30.396c-19.344,0-34.343-16.341-34.343-30.396c0-14.148,15.401-25.657,34.343-25.657   C230.796,214.66,246.197,226.169,246.197,240.317z M210.055,286.809c0,0,6.548,28.385,3.818,40.768   c-2.302-0.364-4.715-0.72-7.354-0.997c-19.2-2.022-24.025-28.695-25.192-44.746c5.573-1.583,10.769-4.771,15.586-9.417   c4.584,1.909,9.615,3.035,14.946,3.035c4.04,0,7.916-0.647,11.55-1.79c6.183,4.594,12.513,8.239,18.962,10.891   c-0.716,27.133-2.935,39.187-7.67,43.146c-3.342,2.795-8.652,1.905-16.681,0.549C218.851,315.559,211.065,290.058,210.055,286.809z    M190.929,168.475c3.202,0,5.964,1.235,8.443,3.782c7.53,7.735,10.227,24.983,11.184,37.717   c-6.424,0.167-12.467,1.523-17.748,3.829c-5.562-8.942-13.938-20.31-24.231-27.764   C173.176,177.099,180.345,168.475,190.929,168.475z M334.31,272.132c-3.396,7.757-11.283,10.889-22.197,15.224   c-7.419,2.947-16.651,6.615-26.61,12.72c-7.962,4.881-13.992,11.924-19.829,18.737c-10.708,12.502-20.819,24.313-42.337,24.311   c-4.398,0-9.208-0.507-14.297-1.51c-37.52-7.385-51.396-48.242-55.285-63.33c4.674,2.313,9.581,3.975,14.638,4.566   c1.397,0.167,2.774,0.245,4.135,0.245c1.381,0,2.729-0.107,4.069-0.273c1.307,17.426,6.897,46.099,29.423,48.471   c4.114,0.432,7.858,1.064,11.163,1.619c4.173,0.703,7.93,1.336,11.255,1.336c3.593,0,6.7-0.738,9.302-2.919   c5.902-4.935,8.492-16.795,9.327-45.044c7.024,2.343,14.188,3.597,21.456,3.597c25,0,47.632-14.017,63.95-28.936   C334.794,264.686,335.867,268.576,334.31,272.132z M372.996,209.131l-19.541-30.493c0,0,16.266-8.882,26.645,2.072   C394.597,196.017,372.996,209.131,372.996,209.131z"/></g></svg>