<?xml version="1.0" encoding="iso-8859-1"?>
<!-- Generator: Adobe Illustrator 19.0.0, SVG Export Plug-In . SVG Version: 6.00 Build 0)  -->
<svg fill="#ffffff" version="1.1" id="Layer_1" width="10" height="10" xmlns="http://www.w3.org/2000/svg" xmlns:xlink="http://www.w3.org/1999/xlink" x="0px" y="0px"
	 viewBox="0 0 512 512" style="enable-background:new 0 0 512 512;" xml:space="preserve">
<g>
	<g>
		<path  d="M84.977,209.503H50.772c-4.428,0-8.017,3.588-8.017,8.017v85.511c0,4.428,3.588,8.017,8.017,8.017h34.205
			c4.428,0,8.017-3.588,8.017-8.017V217.52C92.994,213.091,89.405,209.503,84.977,209.503z M76.96,295.015H58.789v-69.478H76.96
			V295.015z"/>
	</g>
</g>
<g>
	<g>
		<path  d="M127.733,225.537c4.428,0,8.017-3.588,8.017-8.017V114.906c0-4.428-3.588-8.017-8.017-8.017H84.977
			c-4.428,0-8.017,3.588-8.017,8.017v60.392H8.017c-4.428,0-8.017,3.588-8.017,8.017v153.921c0,4.428,3.588,8.017,8.017,8.017
			h119.716c4.428,0,8.017-3.588,8.017-8.017v-85.511c0-4.428-3.588-8.017-8.017-8.017s-8.017,3.588-8.017,8.017v77.495H16.033
			V191.332h68.944c4.428,0,8.017-3.588,8.017-8.017v-60.393h26.722v94.597C119.716,221.948,123.304,225.537,127.733,225.537z"/>
	</g>
</g>
<g>
	<g>
		<path d="M307.307,209.503h-34.205c-4.428,0-8.017,3.588-8.017,8.017v85.511c0,4.428,3.588,8.017,8.017,8.017h34.205
			c4.428,0,8.017-3.588,8.017-8.017V217.52C315.324,213.091,311.735,209.503,307.307,209.503z M299.29,295.015h-18.171v-69.478
			h18.171V295.015z"/>
	</g>
</g>
<g>
	<g>
		<path d="M350.063,175.299H230.347c-4.428,0-8.017,3.588-8.017,8.017v153.921c0,4.428,3.588,8.017,8.017,8.017h68.944v9.62h-68.944
			c-4.428,0-8.017,3.588-8.017,8.017v34.205c0,4.428,3.588,8.017,8.017,8.017h68.409c4.428,0,8.017-3.588,8.017-8.017
			c0-4.428-3.588-8.017-8.017-8.017h-60.392v-18.171h68.944c4.428,0,8.017-3.588,8.017-8.017v-25.653
			c0-4.428-3.588-8.017-8.017-8.017h-68.944V191.332h103.683v197.745h-9.086c-4.428,0-8.017,3.588-8.017,8.017
			c0,4.428,3.588,8.017,8.017,8.017h17.102c4.428,0,8.017-3.588,8.017-8.017V183.315
			C358.079,178.887,354.491,175.299,350.063,175.299z"/>
	</g>
</g>
<g>
	<g>
		<path d="M461.228,209.503h-34.205c-4.428,0-8.017,3.588-8.017,8.017v85.511c0,4.428,3.588,8.017,8.017,8.017h34.205
			c4.428,0,8.017-3.588,8.017-8.017V217.52C469.244,213.091,465.656,209.503,461.228,209.503z M453.211,295.015H435.04v-69.478
			h18.171V295.015z"/>
	</g>
</g>
<g>
	<g>
		<path d="M503.983,175.299H384.267c-4.428,0-8.017,3.588-8.017,8.017v153.921c0,4.428,3.588,8.017,8.017,8.017h68.944v9.62h-68.944
			c-4.428,0-8.017,3.588-8.017,8.017v34.205c0,4.428,3.588,8.017,8.017,8.017h119.716c4.428,0,8.017-3.588,8.017-8.017V183.315
			C512,178.887,508.412,175.299,503.983,175.299z M495.967,389.077H392.284v-18.171h68.944c4.428,0,8.017-3.588,8.017-8.017v-25.653
			c0-4.428-3.588-8.017-8.017-8.017h-68.944V191.332h103.683V389.077z"/>
	</g>
</g>
<g>
	<g>
		<path d="M196.142,175.299h-34.205c-4.428,0-8.017,3.588-8.017,8.017v153.921c0,4.428,3.588,8.017,8.017,8.017h34.205
			c4.428,0,8.017-3.588,8.017-8.017V183.315C204.159,178.887,200.57,175.299,196.142,175.299z M188.125,329.219h-18.171V191.332
			h18.171V329.219z"/>
	</g>
</g>
<g>
	<g>
		<path d="M196.142,106.889h-34.205c-4.428,0-8.017,3.588-8.017,8.017v34.205c0,4.428,3.588,8.017,8.017,8.017h34.205
			c4.428,0,8.017-3.588,8.017-8.017v-34.205C204.159,110.478,200.57,106.889,196.142,106.889z M188.125,141.094h-18.171v-18.171
			h18.171V141.094z"/>
	</g>
</g>
<g>
</g>
<g>
</g>
<g>
</g>
<g>
</g>
<g>
</g>
<g>
</g>
<g>
</g>
<g>
</g>
<g>
</g>
<g>
</g>
<g>
</g>
<g>
</g>
<g>
</g>
<g>
</g>
<g>
</g>
</svg>
