<?xml version="1.0" encoding="iso-8859-1"?>
<!-- Generator: Adobe Illustrator 19.0.0, SVG Export Plug-In . SVG Version: 6.00 Build 0)  -->
<svg fill="#ffffff" version="1.1" id="Capa_1" width="10" height="10" xmlns="http://www.w3.org/2000/svg" xmlns:xlink="http://www.w3.org/1999/xlink" x="0px" y="0px"
	 viewBox="0 0 512.717 512.717" style="enable-background:new 0 0 512.717 512.717;" xml:space="preserve">
<g>
	<path style="fill:#ffffff;" d="M153.71,1.267c-3.985-1.654-8.574-0.745-11.627,2.304L56.75,88.904
		c-4.171,4.16-4.179,10.914-0.019,15.085c2.006,2.011,4.731,3.139,7.571,3.134h85.333c5.891,0,10.667-4.776,10.667-10.667V11.123
		C160.301,6.806,157.699,2.916,153.71,1.267z"/>
	<path style="fill:#ffffff;" d="M428.398,69.939c-17.156-17.612-40.847-27.322-65.429-26.816h-59.584l-0.789-0.789
		c-17.472-17.664-41.429-41.877-67.627-41.877c-25.86-3.595-49.739,14.455-53.333,40.316c-0.6,4.318-0.6,8.699,0,13.018v42.667
		c0,17.673-14.327,32-32,32H64.302c-2.671,0.003-5.245,1.008-7.211,2.816c-17.537,19.673-26.465,45.549-24.789,71.851
		c0,62.72,26.752,181.333,128,181.333c41.237,0,69.696-8.533,86.976-25.813c10.118-10.467,16.545-23.949,18.304-38.4
		c15.118,13.428,34.506,21.062,54.72,21.547c28.928,0,53.333,39.317,53.333,64c0,24.363-12.928,42.667-21.333,42.667h-42.667
		c-10.069,0-21.333-4.565-21.333-10.667c0-5.163,11.221-10.667,32-10.667c5.891,0,10.667-4.776,10.667-10.667v-42.667
		c0-5.891-4.776-10.667-10.667-10.667c-20.288,0-96,10.859-96,64c-3.549,43.579,28.901,81.784,72.48,85.333
		c4.277,0.348,8.576,0.348,12.853,0h53.333c64.768,0,117.333-109.739,117.333-181.333l0.128-16.896
		C481.134,247.923,482.478,124.595,428.398,69.939z M412.355,275.421c-1.902,1.536-4.275,2.372-6.72,2.368
		c-0.717-0.01-1.431-0.089-2.133-0.235c-21.995-4.672-83.2-20.779-85.845-21.461c-4.684-1.23-7.952-5.461-7.957-10.304
		c0-18.027,19.307-53.333,42.667-53.333c36.011,0,64,59.563,64,74.667C416.355,270.354,414.88,273.405,412.355,275.421
		L412.355,275.421z"/>
</g>
<g>
</g>
<g>
</g>
<g>
</g>
<g>
</g>
<g>
</g>
<g>
</g>
<g>
</g>
<g>
</g>
<g>
</g>
<g>
</g>
<g>
</g>
<g>
</g>
<g>
</g>
<g>
</g>
<g>
</g>
</svg>
