<svg xmlns="http://www.w3.org/2000/svg" width="30" height="30" viewBox="0 0 48 48">
  <g fill="none" fill-rule="evenodd" opacity=".9" transform="translate(5.084 7)">
    <polygon fill="#FF5F00" points="15.995 15.748 24.534 15.748 24.534 31.155 15.995 31.155"/>
    <path fill="#EB001B" d="M16.5521389,23.4514417 C16.5521389,20.3266453 18.006252,17.5421734 20.2647682,15.7477359 C18.6250236,14.4483156 16.5212003,13.6439126 14.2626842,13.6439126 C8.87937171,13.6439126 4.5170323,18.0371906 4.5170323,23.4514417 C4.5170323,28.8656927 8.87937171,33.2589707 14.2626842,33.2589707 C16.5521389,33.2589707 18.6250236,32.4545677 20.2647682,31.1551474 C18.006252,29.3607099 16.5521389,26.576238 16.5521389,23.4514417 Z"/>
    <path fill="#F79E1B" d="M36.0434426,23.4514417 C36.0434426,28.8656927 31.6811032,33.2589707 26.2977908,33.2589707 C24.008336,33.2589707 21.9354514,32.4545677 20.2957068,31.1551474 C22.5542229,29.3607099 24.008336,26.576238 24.008336,23.4514417 C24.008336,20.3266453 22.5542229,17.5421734 20.2647682,15.7477359 C21.9354514,14.4483156 24.0392746,13.6439126 26.2977908,13.6439126 C31.6811032,13.6439126 36.0434426,18.0371906 36.0434426,23.4514417 Z"/>
    <path fill="#2A2A6C" fill-rule="nonzero" d="M17.789682,0.309385774 L15.376473,11.5400894 L12.4682467,11.5400894 L14.9123943,0.309385774 L17.789682,0.309385774 Z M30.0413586,7.54901288 L31.5573489,3.34136636 L32.4236291,7.57995146 L30.0413586,7.57995146 L30.0413586,7.54901288 Z M33.2899093,11.5400894 L35.9815655,11.5400894 L33.6302336,0.309385774 L31.1551474,0.309385774 C30.598253,0.309385774 30.1341744,0.618771548 29.9176043,1.14472736 L25.5552649,11.5400894 L28.6181841,11.5400894 L29.206017,9.86940618 L32.9186463,9.86940618 L33.2899093,11.5400894 Z M25.7099578,7.85839865 C25.7408964,4.88829523 21.595127,4.73360234 21.6260656,3.40324351 C21.6260656,3.00104201 21.9973285,2.56790192 22.8636087,2.47508619 C23.2967488,2.41320904 24.4414761,2.38227046 25.7408964,2.97010343 L26.2359136,0.618771548 C25.5243263,0.340324351 24.6271076,0.12375431 23.5133188,0.12375431 C20.6360311,0.12375431 18.6250236,1.6397446 18.594085,3.8363836 C18.5631464,5.44518962 20.0481981,6.37334694 21.1310483,6.89930276 C22.2448371,7.45619715 22.6470386,7.82746008 22.6470386,8.29153874 C22.6470386,9.06500317 21.7188813,9.37438895 20.9144783,9.40532752 C19.4603652,9.4362661 18.594085,9.00312602 17.9134363,8.69374024 L17.3874805,11.1688264 C18.0681292,11.4782122 19.3056723,11.7566594 20.6050925,11.7566594 C23.6989503,11.7257208 25.6790192,10.2097305 25.7099578,7.85839865 Z M13.6748512,0.309385774 L8.94124886,11.5400894 L5.8783297,11.5400894 L3.52699782,2.56790192 C3.40324351,2.01100753 3.2794892,1.82537607 2.8772877,1.57786745 C2.16570042,1.20660452 1.02097305,0.835341589 0,0.618771548 L0.0618771548,0.309385774 L5.01204954,0.309385774 C5.66175966,0.309385774 6.18771548,0.742525857 6.34240836,1.45411314 L7.57995146,7.95121439 L10.611932,0.309385774 L13.6748512,0.309385774 Z"/>
  </g>
</svg>
