<?xml version="1.0" ?><!DOCTYPE svg  PUBLIC '-//W3C//DTD SVG 1.1//EN'  'http://www.w3.org/Graphics/SVG/1.1/DTD/svg11.dtd'><svg enable-background="new 0 0 512 512" height="512px" id="Слой_1" version="1.1" viewBox="0 0 512 512" width="512px" xml:space="preserve" xmlns="http://www.w3.org/2000/svg" xmlns:xlink="http://www.w3.org/1999/xlink"><path d="M464.526,314.746l-0.063,0.031L245.193,22.29l-0.031,0.031C233.037,7.353,213.757,0.008,191.508,0.008  c-27.03,0-58.372,10.844-86.402,32.093c-51.154,38.749-72.278,97.59-47.966,132.62l-0.031,0.031l219.272,292.458l0.063-0.031  l188.491,54.813L464.526,314.746z M401.279,427.055c-7.25,5.5-12.063,13.031-14.281,21.221l-80.496-23.406  c19.344-29.623,25.719-66.061,17.844-100.371c30.654,17.063,67.246,20.969,100.935,10.404l0.219,84.217  C417.06,418.992,408.528,421.555,401.279,427.055z M233.068,71.693l20.624,27.53c-24.093,2.625-50.591,13.187-74.652,31.405  c-24.124,18.28-41.561,40.999-50.716,63.591l-20.593-27.499c0.75-3.5,1.718-6.625,2.593-9.218  c3.531-10.125,9.094-20.187,16.5-29.999c7.875-10.437,17.53-19.968,28.592-28.374c11.062-8.375,22.843-15.031,34.998-19.781  c11.406-4.468,22.593-7.062,33.249-7.656C226.381,71.538,229.568,71.475,233.068,71.693z M301.754,275.811L201.476,142.035  c8.344-5.406,17.031-9.906,25.936-13.375c11.375-4.469,22.593-7.031,33.25-7.688c2.688-0.125,5.874-0.156,9.374,0.031  l145.212,193.679c-13.874,3.814-28.499,4.814-43.153,2.75C343.876,313.434,318.908,298.652,301.754,275.811z M144.698,216.032  c0.75-3.468,1.719-6.593,2.594-9.188c3.562-10.125,9.093-20.218,16.53-29.999c5.75-7.656,12.468-14.812,19.937-21.374  l100.245,133.746l-0.031,0.031c17.156,22.842,24.438,51.061,20.47,79.402c-2.063,14.781-7.095,28.656-14.563,41L144.698,216.032z   M128.73,63.601c10.593-8,21.811-14.218,33.342-18.437c10.25-3.719,20.437-5.687,29.436-5.687c10.75,0,19.218,2.812,23.187,7.75  l2.031,2.656c-24.093,2.656-50.591,13.218-74.653,31.436c-24.124,18.25-41.561,40.999-50.685,63.592l-2.063-2.75  C80.294,129.161,91.137,92.067,128.73,63.601z" id="Livejournal_1_"/></svg>