<?xml version="1.0" encoding="iso-8859-1"?>
<!-- Generator: Adobe Illustrator 18.1.1, SVG Export Plug-In . SVG Version: 6.00 Build 0)  -->
<svg fill="#ffffff" width="70" height="70" version="1.1" id="Capa_1" xmlns="http://www.w3.org/2000/svg" xmlns:xlink="http://www.w3.org/1999/xlink" x="0px" y="0px"
	 viewBox="0 0 478.165 478.165" style="enable-background:new 0 0 478.165 478.165;" xml:space="preserve">
<g>
	<path id="Instapaper" d="M345.344,464.716c-29.268-2.112-48.155-6.435-56.742-13.13c-8.727-6.635-13.03-23.888-13.03-51.702V78.339
		c0-26.598,4.323-43.692,13.03-51.363c8.567-7.631,27.475-12.133,56.742-13.608V0H132.82v13.389
		c29.268,1.434,48.155,5.977,56.842,13.608c8.647,7.671,12.97,24.745,12.97,51.363v321.506c0,27.813-4.343,45.087-12.97,51.702
		c-8.687,6.714-27.594,11.038-56.842,13.11v13.488h212.524V464.716L345.344,464.716z"/>
</g>
<g>
</g>
<g>
</g>
<g>
</g>
<g>
</g>
<g>
</g>
<g>
</g>
<g>
</g>
<g>
</g>
<g>
</g>
<g>
</g>
<g>
</g>
<g>
</g>
<g>
</g>
<g>
</g>
<g>
</g>
</svg>
