<?xml version="1.0" encoding="iso-8859-1"?>
<!-- Generator: Adobe Illustrator 18.1.1, SVG Export Plug-In . SVG Version: 6.00 Build 0)  -->
<svg fill="#ffffff" width="10" height="10" version="1.1" id="Capa_1" xmlns="http://www.w3.org/2000/svg" xmlns:xlink="http://www.w3.org/1999/xlink" x="0px" y="0px"
	 viewBox="0 0 478.165 478.165" style="enable-background:new 0 0 478.165 478.165;" xml:space="preserve">
<g>
	<g>
		<path d="M202.772,28.989c32.396,0,58.715,26.16,58.715,58.396c0,32.376-26.299,58.515-58.715,58.515
			c-32.296,0-58.615-26.16-58.615-58.515C144.157,55.128,170.456,28.989,202.772,28.989z"/>
		<path d="M347.994,0c44.21,0,79.933,35.703,79.933,79.674c0,44.071-35.643,79.774-79.933,79.774
			c-44.011,0-79.853-35.703-79.853-79.774C268.141,35.703,303.983,0,347.994,0z"/>
		<path d="M456.856,282.555c0-60.03-48.673-108.623-108.862-108.623c-28.132,0-53.714,10.978-72.96,28.55
			c-12.91-27.076-40.186-46.003-72.263-46.003c-23.231,0-43.991,10.201-58.655,26.1c-10.958-20.561-32.455-34.786-57.44-34.786
			c-36.141,0-65.369,29.208-65.369,65.19c0,1.434,0.04,2.969,0.219,4.403h-0.219v113.106h101.59v49.112h116.214v98.562h217.724
			V289.628h-0.239C456.757,287.277,456.856,284.926,456.856,282.555z"/>
		<circle cx="86.677" cy="91.31" r="47.836"/>
	</g>
</g>
<g>
</g>
<g>
</g>
<g>
</g>
<g>
</g>
<g>
</g>
<g>
</g>
<g>
</g>
<g>
</g>
<g>
</g>
<g>
</g>
<g>
</g>
<g>
</g>
<g>
</g>
<g>
</g>
<g>
</g>
</svg>
