<svg width="10" height="10" class="icon" style="width: 1em; height: 1em;vertical-align: middle;fill: currentColor;overflow: hidden;" viewBox="0 0 1024 1024" version="1.1" xmlns="http://www.w3.org/2000/svg"><path d="M512 170.666667c134.4 0 247.893333 101.546667 285.44 241.066666-29.44 21.333333-47.36 54.613333-50.773333 92.16l-7.68 89.6c-75.52-38.826667-151.04-74.24-226.986667-74.24-75.52 0-151.466667 35.413333-226.986667 74.24l-7.68-91.306666c-3.413333-37.546667-21.333333-70.4-50.346666-92.16C264.96 271.36 378.026667 170.666667 512 170.666667m215.466667 554.666666H296.533333l-9.386666-107.946666c75.52-37.546667 149.76-73.386667 224.853333-73.386667 75.093333 0 149.333333 35.84 225.28 73.386667L727.466667 725.333333M213.333333 810.666667v-42.666667l-54.613333-149.333333H149.333333A106.666667 106.666667 0 0 1 42.666667 512a106.666667 106.666667 0 0 1 106.666666-106.666667c56.32 0 101.973333 42.666667 106.666667 98.56L277.333333 768v42.666667H213.333333m597.333334 0h-64v-42.666667l21.333333-264.106667a106.666667 106.666667 0 0 1 106.666667-98.56A106.666667 106.666667 0 0 1 981.333333 512a106.666667 106.666667 0 0 1-106.666666 106.666667h-9.386667L810.666667 768v42.666667z" fill="#ffffff" /></svg>