<?xml version="1.0" ?><!DOCTYPE svg  PUBLIC '-//W3C//DTD SVG 1.1//EN'  'http://www.w3.org/Graphics/SVG/1.1/DTD/svg11.dtd'><svg enable-background="new 0 0 512 512" id="Layer_1" version="1.1" viewBox="0 0 512 512" xml:space="preserve" xmlns="http://www.w3.org/2000/svg" xmlns:xlink="http://www.w3.org/1999/xlink"><g><path d="M144.9,226.3c0-24.2-0.1-48.3,0-72.5c0.3-43.8,19.9-76.8,57.4-98.6c28.9-16.9,60.1-19.2,91.7-8.1   c32.5,11.5,55.1,33.8,67.9,66c5.1,12.8,7.2,26.1,7.2,39.9c0,9.7-0.1,19.3,0.1,29c0,2.6-0.8,3.9-3.3,4.7c-13.3,3.8-26.9,7-39.9,11.9   c-7,2.6-12.2,0.4-17.8-2.1c-6.9-3.1-13.7-6.6-20.6-9.7c-2.7-1.2-3.7-2.7-3.7-5.7c0.2-9,0.2-18,0-27c-0.4-15.6-12.6-27-27.3-27   c-14.6,0.1-26.4,12.6-26.4,28c0,51.8-0.2,103.7,0,155.5c0.1,24.5-6.3,46.8-20.4,66.8c-14.7,20.8-34.3,35.1-58.7,42.8   c-14.4,4.5-29,6-43.8,4.6c-16.1-1.5-31.3-6.3-45.5-14.6c-15.8-9.2-28.6-21.2-38.4-36.5c-8.7-13.6-14.5-28.1-16.6-44.2   c-3.6-27.4-0.7-54.9-1.7-82.3c-0.1-3.6,1.8-4.1,4.7-4.1c25.7,0.1,51.3,0.1,77,0c4,0,5.1,1.4,5.1,5.2c-0.1,21,0.3,42-0.2,63   c-0.3,12.7,8.6,22.5,17.1,25.6c11.9,4.2,23.9,0.1,31.2-10.1c3.6-5,4.9-10.7,4.9-16.8C144.9,281.9,144.9,254.1,144.9,226.3z" fill="#ffffff"/><path d="M465.5,243c12.8,0,25.7,0.1,38.5-0.1c3.7,0,4.9,1.2,4.9,4.9c-0.1,22.8,0.6,45.7-0.3,68.5   c-1.4,34.6-15.8,63.1-43,84.7c-14.9,11.8-31.7,19.1-50.6,22.4c-16.1,2.8-32,2.4-47.4-1.9c-28.8-7.9-51.6-24.4-67.4-50.5   c-10.9-17.9-16.5-37-16.4-58c0.1-21.5,0-43,0-64.5c0-5.1,0.4-5.3,4.9-3.1c8.3,4.1,16.8,7.9,25,12c3.6,1.8,7.2,1.1,10.6,0.1   c13.5-4,26.9-8.1,40.3-12.4c3.1-1,4.7-0.7,4.8,2.8c0.1,1.8,0.3,3.6,0.3,5.5c0,20.2,0.5,40.3-0.1,60.5c-0.4,14.4,10.9,25,20.6,26.9   c13.3,2.6,25.4-4.1,30.9-17c1.2-2.7,1-5.5,1-8.4c0-22.2,0.2-44.3-0.1-66.5c0-4.7,1-6.4,6-6.2C440.5,243.2,453,243,465.5,243z" fill="#ffffff"/></g></svg>